<svg class="main-svg" xmlns="http://www.w3.org/2000/svg" xmlns:xlink="http://www.w3.org/1999/xlink" width="800" height="494" style="" viewBox="0 0 800 494"><rect x="0" y="0" width="800" height="494" style="fill: rgb(255, 255, 255); fill-opacity: 1;"/><defs id="defs-df67cc"><g class="clips"/><g class="gradients"/><g class="patterns"/></defs><g class="bglayer"/><g class="layer-below"><g class="imagelayer"/><g class="shapelayer"/></g><g class="cartesianlayer"/><g class="polarlayer"/><g class="ternarylayer"/><g class="geolayer"/><g class="funnelarealayer"/><g class="pielayer"/><g class="iciclelayer"/><g class="treemaplayer"/><g class="sunburstlayer"/><g class="glimages"/><g class="sankey" transform="translate(60,25)matrix(1 0 0 1 0 0)" style="box-sizing: content-box; position: absolute; left: 0px; shape-rendering: geometricPrecision; pointer-events: auto;"><g class="sankey-links" style="fill: none;"><path class="sankey-link" d="M20,134.99999999999994C365,134.99999999999994 365,-1.1368683772161603e-13 710,-1.1368683772161603e-13L710,13.01406760023196C365,13.01406760023196 365,148.014067600232 20,148.014067600232Z" style="stroke: rgb(68, 68, 68); stroke-opacity: 1; fill: rgb(76, 146, 195); fill-opacity: 1; stroke-width: 0; opacity: 1;"/><path class="sankey-link" d="M20,161.3327127988847C365,161.3327127988847 365,79.61288806397269 710,79.61288806397269L710,92.75168504164091C365,92.75168504164091 365,174.47150977655292 20,174.47150977655292Z" style="stroke: rgb(68, 68, 68); stroke-opacity: 1; fill: rgb(76, 146, 195); fill-opacity: 1; stroke-width: 0; opacity: 1;"/><path class="sankey-link" d="M20,174.47150977655292C365,174.47150977655292 365,119.63173459440293 710,119.63173459440293L710,132.86561605123137C365,132.86561605123137 365,187.70539123338136 20,187.70539123338136Z" style="stroke: rgb(68, 68, 68); stroke-opacity: 1; fill: rgb(204, 204, 204); fill-opacity: 1; stroke-width: 0; opacity: 1;"/><path class="sankey-link" d="M20,148.014067600232C365,148.014067600232 365,39.53838543156175 710,39.53838543156175L710,52.85703063021445C365,52.85703063021445 365,161.3327127988847 20,161.3327127988847Z" style="stroke: rgb(68, 68, 68); stroke-opacity: 1; fill: rgb(204, 204, 204); fill-opacity: 1; stroke-width: 0; opacity: 1;"/><path class="sankey-link" d="M20,187.70539123338136C365,187.70539123338136 365,159.82714744154396 710,159.82714744154396L710,173.15125849980598C365,173.15125849980598 365,201.02950229164338 20,201.02950229164338Z" style="stroke: rgb(68, 68, 68); stroke-opacity: 1; fill: rgb(204, 204, 204); fill-opacity: 1; stroke-width: 0; opacity: 1;"/><path class="sankey-link" d="M20,201.0295022916434C365,201.0295022916434 365,199.99447434863703 710,199.99447434863703L710,213.42092141245183C365,213.42092141245183 365,214.45594935545822 20,214.45594935545822Z" style="stroke: rgb(68, 68, 68); stroke-opacity: 1; fill: rgb(204, 204, 204); fill-opacity: 1; stroke-width: 0; opacity: 1;"/><path class="sankey-link" d="M20,214.45594935545824C365,214.45594935545824 365,240.50721617547742 710,240.50721617547742L710,253.95099256986668C365,253.95099256986668 365,227.8997257498475 20,227.8997257498475Z" style="stroke: rgb(68, 68, 68); stroke-opacity: 1; fill: rgb(204, 204, 204); fill-opacity: 1; stroke-width: 0; opacity: 1;"/><path class="sankey-link" d="M20,227.89972574984753C365,227.89972574984753 365,280.93495174581096 710,280.93495174581096L710,294.38739604202044C365,294.38739604202044 365,241.352170046057 20,241.352170046057Z" style="stroke: rgb(68, 68, 68); stroke-opacity: 1; fill: rgb(204, 204, 204); fill-opacity: 1; stroke-width: 0; opacity: 1;"/><path class="sankey-link" d="M20,241.352170046057C365,241.352170046057 365,321.32671387211695 710,321.32671387211695L710,334.8876997488888C365,334.8876997488888 365,254.91315592282885 20,254.91315592282885Z" style="stroke: rgb(68, 68, 68); stroke-opacity: 1; fill: rgb(204, 204, 204); fill-opacity: 1; stroke-width: 0; opacity: 1;"/><path class="sankey-link" d="M20,254.91315592282888C365,254.91315592282888 365,361.89861019746104 710,361.89861019746104L710,375.5212032671998C365,375.5212032671998 365,268.5357489925676 20,268.5357489925676Z" style="stroke: rgb(68, 68, 68); stroke-opacity: 1; fill: rgb(204, 204, 204); fill-opacity: 1; stroke-width: 0; opacity: 1;"/><path class="sankey-link" d="M20,268.5357489925676C365,268.5357489925676 365,402.6936379984011 710,402.6936379984011L710,416.4870571557939C365,416.4870571557939 365,282.3291681499604 20,282.3291681499604Z" style="stroke: rgb(68, 68, 68); stroke-opacity: 1; fill: rgb(204, 204, 204); fill-opacity: 1; stroke-width: 0; opacity: 1;"/><path class="sankey-link" d="M20,297.3291681499604C365,297.3291681499604 365,13.01406760023196 710,13.01406760023196L710,24.538385431561686C365,24.538385431561686 365,308.8534859812902 20,308.8534859812902Z" style="stroke: rgb(68, 68, 68); stroke-opacity: 1; fill: rgb(76, 146, 195); fill-opacity: 1; stroke-width: 0; opacity: 1;"/><path class="sankey-link" d="M20,308.85348598129013C365,308.85348598129013 365,52.857030630214446 710,52.857030630214446L710,64.61288806397279C365,64.61288806397279 365,320.6093434150485 20,320.6093434150485Z" style="stroke: rgb(68, 68, 68); stroke-opacity: 1; fill: rgb(204, 204, 204); fill-opacity: 1; stroke-width: 0; opacity: 1;"/><path class="sankey-link" d="M20,344.45092435812296C365,344.45092435812296 365,173.151258499806 710,173.151258499806L710,184.99447434863706C365,184.99447434863706 365,356.294140206954 20,356.294140206954Z" style="stroke: rgb(68, 68, 68); stroke-opacity: 1; fill: rgb(204, 204, 204); fill-opacity: 1; stroke-width: 0; opacity: 1;"/><path class="sankey-link" d="M20,320.6093434150485C365,320.6093434150485 365,92.75168504164091 710,92.75168504164091L710,104.63173459440279C365,104.63173459440279 365,332.4893929678104 20,332.4893929678104Z" style="stroke: rgb(68, 68, 68); stroke-opacity: 1; fill: rgb(204, 204, 204); fill-opacity: 1; stroke-width: 0; opacity: 1;"/><path class="sankey-link" d="M20,380.3643941459239C365,380.3643941459239 365,294.38739604202044 710,294.38739604202044L710,306.3267138721169C365,306.3267138721169 365,392.30371197602034 20,392.30371197602034Z" style="stroke: rgb(68, 68, 68); stroke-opacity: 1; fill: rgb(204, 204, 204); fill-opacity: 1; stroke-width: 0; opacity: 1;"/><path class="sankey-link" d="M20,332.4893929678104C365,332.4893929678104 365,132.86561605123137 710,132.86561605123137L710,144.82714744154396C365,144.82714744154396 365,344.4509243581229 20,344.4509243581229Z" style="stroke: rgb(68, 68, 68); stroke-opacity: 1; fill: rgb(204, 204, 204); fill-opacity: 1; stroke-width: 0; opacity: 1;"/><path class="sankey-link" d="M20,368.38043496997966C365,368.38043496997966 365,253.9509925698667 710,253.9509925698667L710,265.93495174581096C365,265.93495174581096 365,380.36439414592394 20,380.36439414592394Z" style="stroke: rgb(68, 68, 68); stroke-opacity: 1; fill: rgb(204, 204, 204); fill-opacity: 1; stroke-width: 0; opacity: 1;"/><path class="sankey-link" d="M20,392.30371197602034C365,392.30371197602034 365,334.8876997488888 710,334.8876997488888L710,346.898610197461C365,346.898610197461 365,404.3146224245925 20,404.3146224245925Z" style="stroke: rgb(68, 68, 68); stroke-opacity: 1; fill: rgb(204, 204, 204); fill-opacity: 1; stroke-width: 0; opacity: 1;"/><path class="sankey-link" d="M20,356.294140206954C365,356.294140206954 365,213.42092141245186 710,213.42092141245186L710,225.5072161754775C365,225.5072161754775 365,368.38043496997966 20,368.38043496997966Z" style="stroke: rgb(68, 68, 68); stroke-opacity: 1; fill: rgb(204, 204, 204); fill-opacity: 1; stroke-width: 0; opacity: 1;"/><path class="sankey-link" d="M20,404.3146224245925C365,404.3146224245925 365,375.5212032671998 710,375.5212032671998L710,387.6936379984012C365,387.6936379984012 365,416.48705715579393 20,416.48705715579393Z" style="stroke: rgb(68, 68, 68); stroke-opacity: 1; fill: rgb(204, 204, 204); fill-opacity: 1; stroke-width: 0; opacity: 1;"/><path class="sankey-link" d="M20,416.4870571557939C365,416.4870571557939 365,416.4870571557939 710,416.4870571557939L710,429C365,429 365,429 20,429Z" style="stroke: rgb(68, 68, 68); stroke-opacity: 1; fill: rgb(204, 204, 204); fill-opacity: 1; stroke-width: 0; opacity: 1;"/></g><g class="sankey-node-set" style="cursor: move;"><g class="sankey-node" transform="translate(0.000,135.000)" style="opacity: 1;"><rect class="node-rect" width="20" height="147.32916814996048" style="stroke-width: 0.5; stroke: rgb(0, 0, 0); stroke-opacity: 1; fill: rgb(31, 119, 180); fill-opacity: 0.8;"/><text class="node-label" data-notex="1" x="0" y="0" text-anchor="start" transform="translate(23.25,80.66458407498024)" style="cursor: default; font-family: 'Open Sans', verdana, arial, sans-serif; font-size: 20px; fill: rgb(68, 68, 68); fill-opacity: 1; white-space: pre; text-shadow: rgb(255, 255, 255) 1px 1px 1px, rgb(255, 255, 255) -1px -1px 1px, rgb(255, 255, 255) 1px -1px 1px, rgb(255, 255, 255) -1px 1px 1px;">vitro_VFG</text></g><g class="sankey-node" transform="translate(0.000,297.329)" style="opacity: 1;"><rect class="node-rect" width="20" height="131.67083185003958" style="stroke-width: 0.5; stroke: rgb(0, 0, 0); stroke-opacity: 1; fill: rgb(255, 127, 14); fill-opacity: 0.8;"/><text class="node-label" data-notex="1" x="0" y="0" text-anchor="start" transform="translate(23.25,72.83541592501979)" style="cursor: default; font-family: 'Open Sans', verdana, arial, sans-serif; font-size: 20px; fill: rgb(68, 68, 68); fill-opacity: 1; white-space: pre; text-shadow: rgb(255, 255, 255) 1px 1px 1px, rgb(255, 255, 255) -1px -1px 1px, rgb(255, 255, 255) 1px -1px 1px, rgb(255, 255, 255) -1px 1px 1px;">vitro_hADE</text></g><g class="sankey-node" transform="translate(710.000,-0.000)" style="opacity: 1;"><rect class="node-rect" width="20" height="24.538385431561863" style="stroke-width: 0.5; stroke: rgb(0, 0, 0); stroke-opacity: 1; fill: rgb(44, 160, 44); fill-opacity: 0.8;"/><text class="node-label" data-notex="1" x="0" y="0" text-anchor="end" transform="translate(-3.25,19.26919271578093)" style="cursor: default; font-family: 'Open Sans', verdana, arial, sans-serif; font-size: 20px; fill: rgb(68, 68, 68); fill-opacity: 1; white-space: pre; text-shadow: rgb(255, 255, 255) 1px 1px 1px, rgb(255, 255, 255) -1px -1px 1px, rgb(255, 255, 255) 1px -1px 1px, rgb(255, 255, 255) -1px 1px 1px;">vivo_hMG.1</text></g><g class="sankey-node" transform="translate(710.000,79.613)" style="opacity: 1;"><rect class="node-rect" width="20" height="25.01884653043024" style="stroke-width: 0.5; stroke: rgb(0, 0, 0); stroke-opacity: 1; fill: rgb(214, 39, 40); fill-opacity: 0.8;"/><text class="node-label" data-notex="1" x="0" y="0" text-anchor="end" transform="translate(-3.25,19.50942326521512)" style="cursor: default; font-family: 'Open Sans', verdana, arial, sans-serif; font-size: 20px; fill: rgb(68, 68, 68); fill-opacity: 1; white-space: pre; text-shadow: rgb(255, 255, 255) 1px 1px 1px, rgb(255, 255, 255) -1px -1px 1px, rgb(255, 255, 255) 1px -1px 1px, rgb(255, 255, 255) -1px 1px 1px;">vivo_hAL</text></g><g class="sankey-node" transform="translate(710.000,119.632)" style="opacity: 1;"><rect class="node-rect" width="20" height="25.19541284714103" style="stroke-width: 0.5; stroke: rgb(0, 0, 0); stroke-opacity: 1; fill: rgb(148, 103, 189); fill-opacity: 0.8;"/><text class="node-label" data-notex="1" x="0" y="0" text-anchor="end" transform="translate(-3.25,19.597706423570514)" style="cursor: default; font-family: 'Open Sans', verdana, arial, sans-serif; font-size: 20px; fill: rgb(68, 68, 68); fill-opacity: 1; white-space: pre; text-shadow: rgb(255, 255, 255) 1px 1px 1px, rgb(255, 255, 255) -1px -1px 1px, rgb(255, 255, 255) 1px -1px 1px, rgb(255, 255, 255) -1px 1px 1px;">vivo_hMG.2</text></g><g class="sankey-node" transform="translate(710.000,39.538)" style="opacity: 1;"><rect class="node-rect" width="20" height="25.07450263241094" style="stroke-width: 0.5; stroke: rgb(0, 0, 0); stroke-opacity: 1; fill: rgb(140, 86, 75); fill-opacity: 0.8;"/><text class="node-label" data-notex="1" x="0" y="0" text-anchor="end" transform="translate(-3.25,19.53725131620547)" style="cursor: default; font-family: 'Open Sans', verdana, arial, sans-serif; font-size: 20px; fill: rgb(68, 68, 68); fill-opacity: 1; white-space: pre; text-shadow: rgb(255, 255, 255) 1px 1px 1px, rgb(255, 255, 255) -1px -1px 1px, rgb(255, 255, 255) 1px -1px 1px, rgb(255, 255, 255) -1px 1px 1px;">vivo_hFG.2</text></g><g class="sankey-node" transform="translate(710.000,159.827)" style="opacity: 1;"><rect class="node-rect" width="20" height="25.16732690709307" style="stroke-width: 0.5; stroke: rgb(0, 0, 0); stroke-opacity: 1; fill: rgb(227, 119, 194); fill-opacity: 0.8;"/><text class="node-label" data-notex="1" x="0" y="0" text-anchor="end" transform="translate(-3.25,19.583663453546535)" style="cursor: default; font-family: 'Open Sans', verdana, arial, sans-serif; font-size: 20px; fill: rgb(68, 68, 68); fill-opacity: 1; white-space: pre; text-shadow: rgb(255, 255, 255) 1px 1px 1px, rgb(255, 255, 255) -1px -1px 1px, rgb(255, 255, 255) 1px -1px 1px, rgb(255, 255, 255) -1px 1px 1px;">vivo_hFG.3</text></g><g class="sankey-node" transform="translate(710.000,199.994)" style="opacity: 1;"><rect class="node-rect" width="20" height="25.512741826840397" style="stroke-width: 0.5; stroke: rgb(0, 0, 0); stroke-opacity: 1; fill: rgb(127, 127, 127); fill-opacity: 0.8;"/><text class="node-label" data-notex="1" x="0" y="0" text-anchor="end" transform="translate(-3.25,19.7563709134202)" style="cursor: default; font-family: 'Open Sans', verdana, arial, sans-serif; font-size: 20px; fill: rgb(68, 68, 68); fill-opacity: 1; white-space: pre; text-shadow: rgb(255, 255, 255) 1px 1px 1px, rgb(255, 255, 255) -1px -1px 1px, rgb(255, 255, 255) 1px -1px 1px, rgb(255, 255, 255) -1px 1px 1px;">vivo_hHG.2</text></g><g class="sankey-node" transform="translate(710.000,240.507)" style="opacity: 1;"><rect class="node-rect" width="20" height="25.42773557033354" style="stroke-width: 0.5; stroke: rgb(0, 0, 0); stroke-opacity: 1; fill: rgb(188, 189, 34); fill-opacity: 0.8;"/><text class="node-label" data-notex="1" x="0" y="0" text-anchor="end" transform="translate(-3.25,19.71386778516677)" style="cursor: default; font-family: 'Open Sans', verdana, arial, sans-serif; font-size: 20px; fill: rgb(68, 68, 68); fill-opacity: 1; white-space: pre; text-shadow: rgb(255, 255, 255) 1px 1px 1px, rgb(255, 255, 255) -1px -1px 1px, rgb(255, 255, 255) 1px -1px 1px, rgb(255, 255, 255) -1px 1px 1px;">vivo_hFG.4</text></g><g class="sankey-node" transform="translate(710.000,280.935)" style="opacity: 1;"><rect class="node-rect" width="20" height="25.39176212630599" style="stroke-width: 0.5; stroke: rgb(0, 0, 0); stroke-opacity: 1; fill: rgb(23, 190, 207); fill-opacity: 0.8;"/><text class="node-label" data-notex="1" x="0" y="0" text-anchor="end" transform="translate(-3.25,19.695881063152996)" style="cursor: default; font-family: 'Open Sans', verdana, arial, sans-serif; font-size: 20px; fill: rgb(68, 68, 68); fill-opacity: 1; white-space: pre; text-shadow: rgb(255, 255, 255) 1px 1px 1px, rgb(255, 255, 255) -1px -1px 1px, rgb(255, 255, 255) 1px -1px 1px, rgb(255, 255, 255) -1px 1px 1px;">vivo_hMG.3</text></g><g class="sankey-node" transform="translate(710.000,321.327)" style="opacity: 1;"><rect class="node-rect" width="20" height="25.571896325344085" style="stroke-width: 0.5; stroke: rgb(0, 0, 0); stroke-opacity: 1; fill: rgb(31, 119, 180); fill-opacity: 0.8;"/><text class="node-label" data-notex="1" x="0" y="0" text-anchor="end" transform="translate(-3.25,19.785948162672042)" style="cursor: default; font-family: 'Open Sans', verdana, arial, sans-serif; font-size: 20px; fill: rgb(68, 68, 68); fill-opacity: 1; white-space: pre; text-shadow: rgb(255, 255, 255) 1px 1px 1px, rgb(255, 255, 255) -1px -1px 1px, rgb(255, 255, 255) 1px -1px 1px, rgb(255, 255, 255) -1px 1px 1px;">vivo_hFG.1</text></g><g class="sankey-node" transform="translate(710.000,361.899)" style="opacity: 1;"><rect class="node-rect" width="20" height="25.795027800940034" style="stroke-width: 0.5; stroke: rgb(0, 0, 0); stroke-opacity: 1; fill: rgb(255, 127, 14); fill-opacity: 0.8;"/><text class="node-label" data-notex="1" x="0" y="0" text-anchor="end" transform="translate(-3.25,19.897513900470017)" style="cursor: default; font-family: 'Open Sans', verdana, arial, sans-serif; font-size: 20px; fill: rgb(68, 68, 68); fill-opacity: 1; white-space: pre; text-shadow: rgb(255, 255, 255) 1px 1px 1px, rgb(255, 255, 255) -1px -1px 1px, rgb(255, 255, 255) 1px -1px 1px, rgb(255, 255, 255) -1px 1px 1px;">vivo_hFG.5</text></g><g class="sankey-node" transform="translate(710.000,402.694)" style="opacity: 1;"><rect class="node-rect" width="20" height="26.306362001598927" style="stroke-width: 0.5; stroke: rgb(0, 0, 0); stroke-opacity: 1; fill: rgb(44, 160, 44); fill-opacity: 0.8;"/><text class="node-label" data-notex="1" x="0" y="0" text-anchor="end" transform="translate(-3.25,20.153181000799464)" style="cursor: default; font-family: 'Open Sans', verdana, arial, sans-serif; font-size: 20px; fill: rgb(68, 68, 68); fill-opacity: 1; white-space: pre; text-shadow: rgb(255, 255, 255) 1px 1px 1px, rgb(255, 255, 255) -1px -1px 1px, rgb(255, 255, 255) 1px -1px 1px, rgb(255, 255, 255) -1px 1px 1px;">vivo_hHG.1</text></g></g></g><defs id="topdefs-df67cc"><g class="clips"/></defs><g class="layer-above"><g class="imagelayer"/><g class="shapelayer"/></g><g class="infolayer"><g class="g-gtitle"><text class="gtitle" x="400" y="12.5" text-anchor="middle" dy="0em" style="font-family: 'Open Sans', verdana, arial, sans-serif; font-size: 28px; fill: rgb(68, 68, 68); opacity: 1; font-weight: normal; white-space: pre;">Vitro vs Li et al., 2020</text></g><g class="first-render"/></g></svg>