<svg class="main-svg" xmlns="http://www.w3.org/2000/svg" xmlns:xlink="http://www.w3.org/1999/xlink" width="800" height="494" style="" viewBox="0 0 800 494"><rect x="0" y="0" width="800" height="494" style="fill: rgb(255, 255, 255); fill-opacity: 1;"/><defs id="defs-826938"><g class="clips"/><g class="gradients"/><g class="patterns"/></defs><g class="bglayer"/><g class="layer-below"><g class="imagelayer"/><g class="shapelayer"/></g><g class="cartesianlayer"/><g class="polarlayer"/><g class="ternarylayer"/><g class="geolayer"/><g class="funnelarealayer"/><g class="pielayer"/><g class="iciclelayer"/><g class="treemaplayer"/><g class="sunburstlayer"/><g class="glimages"/><g class="sankey" transform="translate(60,25)matrix(1 0 0 1 0 0)" style="box-sizing: content-box; position: absolute; left: 0px; shape-rendering: geometricPrecision; pointer-events: auto;"><g class="sankey-links" style="fill: none;"><path class="sankey-link" d="M20,119.9999999999996C365,119.9999999999996 365,2.5579538487363607e-13 710,2.5579538487363607e-13L710,8.70569315933755C365,8.70569315933755 365,128.7056931593369 20,128.7056931593369Z" style="stroke: rgb(68, 68, 68); stroke-opacity: 1; fill: rgb(76, 146, 195); fill-opacity: 1; stroke-width: 0; opacity: 1;"/><path class="sankey-link" d="M20,137.61351338548116C365,137.61351338548116 365,79.5626024629772 710,79.5626024629772L710,88.34988125897706C365,88.34988125897706 365,146.40079218148105 20,146.40079218148105Z" style="stroke: rgb(68, 68, 68); stroke-opacity: 1; fill: rgb(76, 146, 195); fill-opacity: 1; stroke-width: 0; opacity: 1;"/><path class="sankey-link" d="M20,146.40079218148102C365,146.40079218148102 365,119.63597107157057 710,119.63597107157057L710,128.4873464504409C365,128.4873464504409 365,155.25216756035135 20,155.25216756035135Z" style="stroke: rgb(68, 68, 68); stroke-opacity: 1; fill: rgb(204, 204, 204); fill-opacity: 1; stroke-width: 0; opacity: 1;"/><path class="sankey-link" d="M20,128.7056931593369C365,128.7056931593369 365,39.53173192878279 710,39.53173192878279L710,48.43955215492703C365,48.43955215492703 365,137.61351338548113 20,137.61351338548113Z" style="stroke: rgb(68, 68, 68); stroke-opacity: 1; fill: rgb(204, 204, 204); fill-opacity: 1; stroke-width: 0; opacity: 1;"/><path class="sankey-link" d="M20,155.25216756035135C365,155.25216756035135 365,159.88295178837745 710,159.88295178837745L710,168.79384368440503C365,168.79384368440503 365,164.16305945637893 20,164.16305945637893Z" style="stroke: rgb(68, 68, 68); stroke-opacity: 1; fill: rgb(204, 204, 204); fill-opacity: 1; stroke-width: 0; opacity: 1;"/><path class="sankey-link" d="M20,164.16305945637893C365,164.16305945637893 365,200.02913308694383 710,200.02913308694383L710,209.01010302485986C365,209.01010302485986 365,173.14402939429496 20,173.14402939429496Z" style="stroke: rgb(68, 68, 68); stroke-opacity: 1; fill: rgb(204, 204, 204); fill-opacity: 1; stroke-width: 0; opacity: 1;"/><path class="sankey-link" d="M20,173.14402939429493C365,173.14402939429493 365,240.56906096032492 710,240.56906096032492L710,249.5606487641246C365,249.5606487641246 365,182.13561719809462 20,182.13561719809462Z" style="stroke: rgb(68, 68, 68); stroke-opacity: 1; fill: rgb(204, 204, 204); fill-opacity: 1; stroke-width: 0; opacity: 1;"/><path class="sankey-link" d="M20,182.13561719809462C365,182.13561719809462 365,280.9830287110857 710,280.9830287110857L710,289.9801391590381C365,289.9801391590381 365,191.13272764604704 20,191.13272764604704Z" style="stroke: rgb(68, 68, 68); stroke-opacity: 1; fill: rgb(204, 204, 204); fill-opacity: 1; stroke-width: 0; opacity: 1;"/><path class="sankey-link" d="M20,191.13272764604704C365,191.13272764604704 365,321.3466100267908 710,321.3466100267908L710,330.41924379971715C365,330.41924379971715 365,200.20536141897344 20,200.20536141897344Z" style="stroke: rgb(68, 68, 68); stroke-opacity: 1; fill: rgb(204, 204, 204); fill-opacity: 1; stroke-width: 0; opacity: 1;"/><path class="sankey-link" d="M20,200.2053614189734C365,200.2053614189734 365,361.8816570978621 710,361.8816570978621L710,370.99262833573675C365,370.99262833573675 365,209.316332656848 20,209.316332656848Z" style="stroke: rgb(68, 68, 68); stroke-opacity: 1; fill: rgb(204, 204, 204); fill-opacity: 1; stroke-width: 0; opacity: 1;"/><path class="sankey-link" d="M20,209.31633265684803C365,209.31633265684803 365,402.6595130093709 710,402.6595130093709L710,411.88556050335137C365,411.88556050335137 365,218.54238015082854 20,218.54238015082854Z" style="stroke: rgb(68, 68, 68); stroke-opacity: 1; fill: rgb(204, 204, 204); fill-opacity: 1; stroke-width: 0; opacity: 1;"/><path class="sankey-link" d="M20,341.703433681126C365,341.703433681126 365,16.890545342057855 710,16.890545342057855L710,24.531731928782882C365,24.531731928782882 365,349.344620267851 20,349.344620267851Z" style="stroke: rgb(68, 68, 68); stroke-opacity: 1; fill: rgb(76, 146, 195); fill-opacity: 1; stroke-width: 0; opacity: 1;"/><path class="sankey-link" d="M20,349.34462026785104C365,349.34462026785104 365,56.7899067929329 710,56.7899067929329L710,64.56260246297718C365,64.56260246297718 365,357.11731593789534 20,357.11731593789534Z" style="stroke: rgb(68, 68, 68); stroke-opacity: 1; fill: rgb(76, 146, 195); fill-opacity: 1; stroke-width: 0; opacity: 1;"/><path class="sankey-link" d="M20,372.9484746887943C365,372.9484746887943 365,177.19982899879528 710,177.19982899879528L710,185.02913308694377C365,185.02913308694377 365,380.77777877694274 20,380.77777877694274Z" style="stroke: rgb(68, 68, 68); stroke-opacity: 1; fill: rgb(204, 204, 204); fill-opacity: 1; stroke-width: 0; opacity: 1;"/><path class="sankey-link" d="M20,357.11731593789534C365,357.11731593789534 365,96.76053947799092 710,96.76053947799092L710,104.63597107157084C365,104.63597107157084 365,364.9927475314753 20,364.9927475314753Z" style="stroke: rgb(68, 68, 68); stroke-opacity: 1; fill: rgb(204, 204, 204); fill-opacity: 1; stroke-width: 0; opacity: 1;"/><path class="sankey-link" d="M20,388.7939269061985C365,388.7939269061985 365,258.05794573417967 710,258.05794573417967L710,265.98302871108575C365,265.98302871108575 365,396.7190098831046 20,396.7190098831046Z" style="stroke: rgb(68, 68, 68); stroke-opacity: 1; fill: rgb(204, 204, 204); fill-opacity: 1; stroke-width: 0; opacity: 1;"/><path class="sankey-link" d="M20,396.71900988310455C365,396.71900988310455 365,298.40777109934106 710,298.40777109934106L710,306.3466100267908C365,306.3466100267908 365,404.6578488105543 20,404.6578488105543Z" style="stroke: rgb(68, 68, 68); stroke-opacity: 1; fill: rgb(204, 204, 204); fill-opacity: 1; stroke-width: 0; opacity: 1;"/><path class="sankey-link" d="M20,364.99274753147523C365,364.99274753147523 365,136.92722463105827 710,136.92722463105827L710,144.88295178837734C365,144.88295178837734 365,372.9484746887943 20,372.9484746887943Z" style="stroke: rgb(68, 68, 68); stroke-opacity: 1; fill: rgb(204, 204, 204); fill-opacity: 1; stroke-width: 0; opacity: 1;"/><path class="sankey-link" d="M20,404.65784881055436C365,404.65784881055436 365,338.92279100733515 710,338.92279100733515L710,346.8816570978621C365,346.8816570978621 365,412.6167149010813 20,412.6167149010813Z" style="stroke: rgb(68, 68, 68); stroke-opacity: 1; fill: rgb(204, 204, 204); fill-opacity: 1; stroke-width: 0; opacity: 1;"/><path class="sankey-link" d="M20,380.7777787769428C365,380.7777787769428 365,217.55291283106934 710,217.55291283106934L710,225.56906096032506C365,225.56906096032506 365,388.7939269061985 20,388.7939269061985Z" style="stroke: rgb(68, 68, 68); stroke-opacity: 1; fill: rgb(204, 204, 204); fill-opacity: 1; stroke-width: 0; opacity: 1;"/><path class="sankey-link" d="M20,412.6167149010813C365,412.6167149010813 365,379.5788241904104 710,379.5788241904104L710,387.6595130093709C365,387.6595130093709 365,420.69740372004185 20,420.69740372004185Z" style="stroke: rgb(68, 68, 68); stroke-opacity: 1; fill: rgb(204, 204, 204); fill-opacity: 1; stroke-width: 0; opacity: 1;"/><path class="sankey-link" d="M20,420.6974037200418C365,420.6974037200418 365,420.697403720042 710,420.697403720042L710,429.00000000000006C365,429.00000000000006 365,428.99999999999983 20,428.99999999999983Z" style="stroke: rgb(68, 68, 68); stroke-opacity: 1; fill: rgb(204, 204, 204); fill-opacity: 1; stroke-width: 0; opacity: 1;"/><path class="sankey-link" d="M20,233.54238015082876C365,233.54238015082876 365,8.70569315933755 710,8.70569315933755L710,16.890545342057855C365,16.890545342057855 365,241.72723233354907 20,241.72723233354907Z" style="stroke: rgb(68, 68, 68); stroke-opacity: 1; fill: rgb(76, 146, 195); fill-opacity: 1; stroke-width: 0; opacity: 1;"/><path class="sankey-link" d="M20,241.72723233354907C365,241.72723233354907 365,48.43955215492703 710,48.43955215492703L710,56.7899067929329C365,56.7899067929329 365,250.07758697155492 20,250.07758697155492Z" style="stroke: rgb(68, 68, 68); stroke-opacity: 1; fill: rgb(204, 204, 204); fill-opacity: 1; stroke-width: 0; opacity: 1;"/><path class="sankey-link" d="M20,266.92812337118613C365,266.92812337118613 365,168.79384368440503 710,168.79384368440503L710,177.19982899879528C365,177.19982899879528 365,275.3341086855764 20,275.3341086855764Z" style="stroke: rgb(68, 68, 68); stroke-opacity: 1; fill: rgb(204, 204, 204); fill-opacity: 1; stroke-width: 0; opacity: 1;"/><path class="sankey-link" d="M20,250.07758697155492C365,250.07758697155492 365,88.34988125897706 710,88.34988125897706L710,96.7605394779909C365,96.7605394779909 365,258.48824519056876 20,258.48824519056876Z" style="stroke: rgb(68, 68, 68); stroke-opacity: 1; fill: rgb(204, 204, 204); fill-opacity: 1; stroke-width: 0; opacity: 1;"/><path class="sankey-link" d="M20,292.37421546184095C365,292.37421546184095 365,289.9801391590381 710,289.9801391590381L710,298.40777109934106C365,298.40777109934106 365,300.8018474021439 20,300.8018474021439Z" style="stroke: rgb(68, 68, 68); stroke-opacity: 1; fill: rgb(204, 204, 204); fill-opacity: 1; stroke-width: 0; opacity: 1;"/><path class="sankey-link" d="M20,258.48824519056876C365,258.48824519056876 365,128.4873464504409 710,128.4873464504409L710,136.92722463105827C365,136.92722463105827 365,266.92812337118613 20,266.92812337118613Z" style="stroke: rgb(68, 68, 68); stroke-opacity: 1; fill: rgb(204, 204, 204); fill-opacity: 1; stroke-width: 0; opacity: 1;"/><path class="sankey-link" d="M20,283.8769184917859C365,283.8769184917859 365,249.5606487641246 710,249.5606487641246L710,258.05794573417967C365,258.05794573417967 365,292.3742154618409 20,292.3742154618409Z" style="stroke: rgb(68, 68, 68); stroke-opacity: 1; fill: rgb(204, 204, 204); fill-opacity: 1; stroke-width: 0; opacity: 1;"/><path class="sankey-link" d="M20,300.8018474021439C365,300.8018474021439 365,330.4192437997172 710,330.4192437997172L710,338.9227910073351C365,338.9227910073351 365,309.3053946097618 20,309.3053946097618Z" style="stroke: rgb(68, 68, 68); stroke-opacity: 1; fill: rgb(204, 204, 204); fill-opacity: 1; stroke-width: 0; opacity: 1;"/><path class="sankey-link" d="M20,275.3341086855764C365,275.3341086855764 365,209.01010302485983 710,209.01010302485983L710,217.55291283106934C365,217.55291283106934 365,283.87691849178594 20,283.87691849178594Z" style="stroke: rgb(68, 68, 68); stroke-opacity: 1; fill: rgb(204, 204, 204); fill-opacity: 1; stroke-width: 0; opacity: 1;"/><path class="sankey-link" d="M20,309.30539460976183C365,309.30539460976183 365,370.9926283357367 710,370.9926283357367L710,379.57882419041044C365,379.57882419041044 365,317.8915904644356 20,317.8915904644356Z" style="stroke: rgb(68, 68, 68); stroke-opacity: 1; fill: rgb(204, 204, 204); fill-opacity: 1; stroke-width: 0; opacity: 1;"/><path class="sankey-link" d="M20,317.8915904644355C365,317.8915904644355 365,411.8855605033514 710,411.8855605033514L710,420.697403720042C365,420.697403720042 365,326.7034336811261 20,326.7034336811261Z" style="stroke: rgb(68, 68, 68); stroke-opacity: 1; fill: rgb(204, 204, 204); fill-opacity: 1; stroke-width: 0; opacity: 1;"/></g><g class="sankey-node-set" style="cursor: move;"><g class="sankey-node" transform="translate(0.000,120.000)" style="opacity: 1;"><rect class="node-rect" width="20" height="98.54238015082916" style="stroke-width: 0.5; stroke: rgb(0, 0, 0); stroke-opacity: 1; fill: rgb(31, 119, 180); fill-opacity: 0.8;"/><text class="node-label" data-notex="1" x="0" y="0" text-anchor="start" transform="translate(23.25,56.27119007541458)" style="cursor: default; font-family: 'Open Sans', verdana, arial, sans-serif; font-size: 20px; fill: rgb(68, 68, 68); fill-opacity: 1; white-space: pre; text-shadow: rgb(255, 255, 255) 1px 1px 1px, rgb(255, 255, 255) -1px -1px 1px, rgb(255, 255, 255) 1px -1px 1px, rgb(255, 255, 255) -1px 1px 1px;">vitrosub_0</text></g><g class="sankey-node" transform="translate(0.000,341.703)" style="opacity: 1;"><rect class="node-rect" width="20" height="87.296566318874" style="stroke-width: 0.5; stroke: rgb(0, 0, 0); stroke-opacity: 1; fill: rgb(255, 127, 14); fill-opacity: 0.8;"/><text class="node-label" data-notex="1" x="0" y="0" text-anchor="start" transform="translate(23.25,50.648283159437)" style="cursor: default; font-family: 'Open Sans', verdana, arial, sans-serif; font-size: 20px; fill: rgb(68, 68, 68); fill-opacity: 1; white-space: pre; text-shadow: rgb(255, 255, 255) 1px 1px 1px, rgb(255, 255, 255) -1px -1px 1px, rgb(255, 255, 255) 1px -1px 1px, rgb(255, 255, 255) -1px 1px 1px;">vitrosub_1</text></g><g class="sankey-node" transform="translate(0.000,233.542)" style="opacity: 1;"><rect class="node-rect" width="20" height="93.16105353029724" style="stroke-width: 0.5; stroke: rgb(0, 0, 0); stroke-opacity: 1; fill: rgb(44, 160, 44); fill-opacity: 0.8;"/><text class="node-label" data-notex="1" x="0" y="0" text-anchor="start" transform="translate(23.25,53.58052676514862)" style="cursor: default; font-family: 'Open Sans', verdana, arial, sans-serif; font-size: 20px; fill: rgb(68, 68, 68); fill-opacity: 1; white-space: pre; text-shadow: rgb(255, 255, 255) 1px 1px 1px, rgb(255, 255, 255) -1px -1px 1px, rgb(255, 255, 255) 1px -1px 1px, rgb(255, 255, 255) -1px 1px 1px;">vitrosub_2</text></g><g class="sankey-node" transform="translate(710.000,0.000)" style="opacity: 1;"><rect class="node-rect" width="20" height="24.531731928782534" style="stroke-width: 0.5; stroke: rgb(0, 0, 0); stroke-opacity: 1; fill: rgb(214, 39, 40); fill-opacity: 0.8;"/><text class="node-label" data-notex="1" x="0" y="0" text-anchor="end" transform="translate(-3.25,19.265865964391267)" style="cursor: default; font-family: 'Open Sans', verdana, arial, sans-serif; font-size: 20px; fill: rgb(68, 68, 68); fill-opacity: 1; white-space: pre; text-shadow: rgb(255, 255, 255) 1px 1px 1px, rgb(255, 255, 255) -1px -1px 1px, rgb(255, 255, 255) 1px -1px 1px, rgb(255, 255, 255) -1px 1px 1px;">vivo_hMG.1</text></g><g class="sankey-node" transform="translate(710.000,79.563)" style="opacity: 1;"><rect class="node-rect" width="20" height="25.07336860859337" style="stroke-width: 0.5; stroke: rgb(0, 0, 0); stroke-opacity: 1; fill: rgb(148, 103, 189); fill-opacity: 0.8;"/><text class="node-label" data-notex="1" x="0" y="0" text-anchor="end" transform="translate(-3.25,19.536684304296685)" style="cursor: default; font-family: 'Open Sans', verdana, arial, sans-serif; font-size: 20px; fill: rgb(68, 68, 68); fill-opacity: 1; white-space: pre; text-shadow: rgb(255, 255, 255) 1px 1px 1px, rgb(255, 255, 255) -1px -1px 1px, rgb(255, 255, 255) 1px -1px 1px, rgb(255, 255, 255) -1px 1px 1px;">vivo_hAL</text></g><g class="sankey-node" transform="translate(710.000,119.636)" style="opacity: 1;"><rect class="node-rect" width="20" height="25.24698071680689" style="stroke-width: 0.5; stroke: rgb(0, 0, 0); stroke-opacity: 1; fill: rgb(140, 86, 75); fill-opacity: 0.8;"/><text class="node-label" data-notex="1" x="0" y="0" text-anchor="end" transform="translate(-3.25,19.623490358403444)" style="cursor: default; font-family: 'Open Sans', verdana, arial, sans-serif; font-size: 20px; fill: rgb(68, 68, 68); fill-opacity: 1; white-space: pre; text-shadow: rgb(255, 255, 255) 1px 1px 1px, rgb(255, 255, 255) -1px -1px 1px, rgb(255, 255, 255) 1px -1px 1px, rgb(255, 255, 255) -1px 1px 1px;">vivo_hMG.2</text></g><g class="sankey-node" transform="translate(710.000,39.532)" style="opacity: 1;"><rect class="node-rect" width="20" height="25.030870534194406" style="stroke-width: 0.5; stroke: rgb(0, 0, 0); stroke-opacity: 1; fill: rgb(227, 119, 194); fill-opacity: 0.8;"/><text class="node-label" data-notex="1" x="0" y="0" text-anchor="end" transform="translate(-3.25,19.515435267097203)" style="cursor: default; font-family: 'Open Sans', verdana, arial, sans-serif; font-size: 20px; fill: rgb(68, 68, 68); fill-opacity: 1; white-space: pre; text-shadow: rgb(255, 255, 255) 1px 1px 1px, rgb(255, 255, 255) -1px -1px 1px, rgb(255, 255, 255) 1px -1px 1px, rgb(255, 255, 255) -1px 1px 1px;">vivo_hFG.2</text></g><g class="sankey-node" transform="translate(710.000,159.883)" style="opacity: 1;"><rect class="node-rect" width="20" height="25.146181298566376" style="stroke-width: 0.5; stroke: rgb(0, 0, 0); stroke-opacity: 1; fill: rgb(127, 127, 127); fill-opacity: 0.8;"/><text class="node-label" data-notex="1" x="0" y="0" text-anchor="end" transform="translate(-3.25,19.573090649283188)" style="cursor: default; font-family: 'Open Sans', verdana, arial, sans-serif; font-size: 20px; fill: rgb(68, 68, 68); fill-opacity: 1; white-space: pre; text-shadow: rgb(255, 255, 255) 1px 1px 1px, rgb(255, 255, 255) -1px -1px 1px, rgb(255, 255, 255) 1px -1px 1px, rgb(255, 255, 255) -1px 1px 1px;">vivo_hFG.3</text></g><g class="sankey-node" transform="translate(710.000,200.029)" style="opacity: 1;"><rect class="node-rect" width="20" height="25.53992787338109" style="stroke-width: 0.5; stroke: rgb(0, 0, 0); stroke-opacity: 1; fill: rgb(188, 189, 34); fill-opacity: 0.8;"/><text class="node-label" data-notex="1" x="0" y="0" text-anchor="end" transform="translate(-3.25,19.769963936690544)" style="cursor: default; font-family: 'Open Sans', verdana, arial, sans-serif; font-size: 20px; fill: rgb(68, 68, 68); fill-opacity: 1; white-space: pre; text-shadow: rgb(255, 255, 255) 1px 1px 1px, rgb(255, 255, 255) -1px -1px 1px, rgb(255, 255, 255) 1px -1px 1px, rgb(255, 255, 255) -1px 1px 1px;">vivo_hHG.2</text></g><g class="sankey-node" transform="translate(710.000,240.569)" style="opacity: 1;"><rect class="node-rect" width="20" height="25.413967750760776" style="stroke-width: 0.5; stroke: rgb(0, 0, 0); stroke-opacity: 1; fill: rgb(23, 190, 207); fill-opacity: 0.8;"/><text class="node-label" data-notex="1" x="0" y="0" text-anchor="end" transform="translate(-3.25,19.706983875380388)" style="cursor: default; font-family: 'Open Sans', verdana, arial, sans-serif; font-size: 20px; fill: rgb(68, 68, 68); fill-opacity: 1; white-space: pre; text-shadow: rgb(255, 255, 255) 1px 1px 1px, rgb(255, 255, 255) -1px -1px 1px, rgb(255, 255, 255) 1px -1px 1px, rgb(255, 255, 255) -1px 1px 1px;">vivo_hFG.4</text></g><g class="sankey-node" transform="translate(710.000,280.983)" style="opacity: 1;"><rect class="node-rect" width="20" height="25.36358131570512" style="stroke-width: 0.5; stroke: rgb(0, 0, 0); stroke-opacity: 1; fill: rgb(31, 119, 180); fill-opacity: 0.8;"/><text class="node-label" data-notex="1" x="0" y="0" text-anchor="end" transform="translate(-3.25,19.68179065785256)" style="cursor: default; font-family: 'Open Sans', verdana, arial, sans-serif; font-size: 20px; fill: rgb(68, 68, 68); fill-opacity: 1; white-space: pre; text-shadow: rgb(255, 255, 255) 1px 1px 1px, rgb(255, 255, 255) -1px -1px 1px, rgb(255, 255, 255) 1px -1px 1px, rgb(255, 255, 255) -1px 1px 1px;">vivo_hMG.3</text></g><g class="sankey-node" transform="translate(710.000,321.347)" style="opacity: 1;"><rect class="node-rect" width="20" height="25.53504707107129" style="stroke-width: 0.5; stroke: rgb(0, 0, 0); stroke-opacity: 1; fill: rgb(255, 127, 14); fill-opacity: 0.8;"/><text class="node-label" data-notex="1" x="0" y="0" text-anchor="end" transform="translate(-3.25,19.767523535535645)" style="cursor: default; font-family: 'Open Sans', verdana, arial, sans-serif; font-size: 20px; fill: rgb(68, 68, 68); fill-opacity: 1; white-space: pre; text-shadow: rgb(255, 255, 255) 1px 1px 1px, rgb(255, 255, 255) -1px -1px 1px, rgb(255, 255, 255) 1px -1px 1px, rgb(255, 255, 255) -1px 1px 1px;">vivo_hFG.1</text></g><g class="sankey-node" transform="translate(710.000,361.882)" style="opacity: 1;"><rect class="node-rect" width="20" height="25.777855911508823" style="stroke-width: 0.5; stroke: rgb(0, 0, 0); stroke-opacity: 1; fill: rgb(44, 160, 44); fill-opacity: 0.8;"/><text class="node-label" data-notex="1" x="0" y="0" text-anchor="end" transform="translate(-3.25,19.88892795575441)" style="cursor: default; font-family: 'Open Sans', verdana, arial, sans-serif; font-size: 20px; fill: rgb(68, 68, 68); fill-opacity: 1; white-space: pre; text-shadow: rgb(255, 255, 255) 1px 1px 1px, rgb(255, 255, 255) -1px -1px 1px, rgb(255, 255, 255) 1px -1px 1px, rgb(255, 255, 255) -1px 1px 1px;">vivo_hFG.5</text></g><g class="sankey-node" transform="translate(710.000,402.660)" style="opacity: 1;"><rect class="node-rect" width="20" height="26.340486990629074" style="stroke-width: 0.5; stroke: rgb(0, 0, 0); stroke-opacity: 1; fill: rgb(214, 39, 40); fill-opacity: 0.8;"/><text class="node-label" data-notex="1" x="0" y="0" text-anchor="end" transform="translate(-3.25,20.170243495314537)" style="cursor: default; font-family: 'Open Sans', verdana, arial, sans-serif; font-size: 20px; fill: rgb(68, 68, 68); fill-opacity: 1; white-space: pre; text-shadow: rgb(255, 255, 255) 1px 1px 1px, rgb(255, 255, 255) -1px -1px 1px, rgb(255, 255, 255) 1px -1px 1px, rgb(255, 255, 255) -1px 1px 1px;">vivo_hHG.1</text></g></g></g><defs id="topdefs-826938"><g class="clips"/></defs><g class="layer-above"><g class="imagelayer"/><g class="shapelayer"/></g><g class="infolayer"><g class="g-gtitle"><text class="gtitle" x="400" y="12.5" text-anchor="middle" dy="0em" style="font-family: 'Open Sans', verdana, arial, sans-serif; font-size: 28px; fill: rgb(68, 68, 68); opacity: 1; font-weight: normal; white-space: pre;">Vitro vs Li et al., 2020</text></g><g class="first-render"/></g></svg>